<?xml version="1.0" encoding="UTF-8" standalone="no"?>
<svg
   xmlns:dc="http://purl.org/dc/elements/1.1/"
   xmlns:cc="http://creativecommons.org/ns#"
   xmlns:rdf="http://www.w3.org/1999/02/22-rdf-syntax-ns#"
   xmlns:svg="http://www.w3.org/2000/svg"
   xmlns="http://www.w3.org/2000/svg"
   viewBox="0 0 182.94624 145.58624"
   height="145.58624"
   width="182.94624"
   xml:space="preserve"
   version="1.1"
   id="svg2"><metadata
     id="metadata8"><rdf:RDF><cc:Work
         rdf:about=""><dc:format>image/svg+xml</dc:format><dc:type
           rdf:resource="http://purl.org/dc/dcmitype/StillImage" /></cc:Work></rdf:RDF></metadata><defs
     id="defs6" /><g
     transform="matrix(1.25,0,0,-1.25,43.735,35.43375)"
     id="g10"><g
       transform="translate(0,-59.776)"
       id="g12"><path
         id="path14"
         style="fill:none;stroke:#000000;stroke-width:0.99625999;stroke-linecap:round;stroke-linejoin:round;stroke-miterlimit:10;stroke-dasharray:none;stroke-opacity:1"
         d="M 0,0 19.9252,29.88783" /><path
         id="path16"
         style="fill:none;stroke:#000000;stroke-width:0.99625999;stroke-linecap:round;stroke-linejoin:round;stroke-miterlimit:10;stroke-dasharray:none;stroke-opacity:1"
         d="M 0,59.7757 19.9252,29.88783" /><path
         id="path18"
         style="fill:#000000;fill-opacity:1;fill-rule:nonzero;stroke:none"
         d="M 5.6385,46.02737 14.1556,38.54227 10.52208,49.28311 5.6385,46.02737 Z" /><path
         id="path20"
         style="fill:none;stroke:#000000;stroke-width:0.99625999;stroke-linecap:round;stroke-linejoin:round;stroke-miterlimit:10;stroke-dasharray:none;stroke-opacity:1"
         d="m 19.9252,29.88783 c 1.10695,1.9173 3.87435,1.9173 4.9813,0 1.10694,-1.91729 3.87434,-1.91729 4.98129,0 1.10695,1.9173 3.87434,1.9173 4.98129,0 1.10696,-1.91733 3.87437,-1.91736 4.98134,-4e-5 1.10695,1.91729 3.87434,1.91729 4.98129,0 1.10695,-1.9173 3.87434,-1.9173 4.98129,0 1.10695,1.91729 3.87435,1.91729 4.9813,0 1.10695,-1.91732 3.87434,-1.91732 4.98129,0" /><path
         id="path22"
         style="fill:none;stroke:#000000;stroke-width:0.99625999;stroke-linecap:round;stroke-linejoin:round;stroke-miterlimit:10;stroke-dasharray:none;stroke-opacity:1"
         d="M 59.77559,29.88779 79.70093,0" /><path
         id="path24"
         style="fill:#000000;fill-opacity:1;fill-rule:nonzero;stroke:none"
         d="M 65.41412,16.13951 73.93127,8.65442 70.29773,19.39525 65.41412,16.13951 Z" /><path
         id="path26"
         style="fill:none;stroke:#000000;stroke-width:0.99625999;stroke-linecap:round;stroke-linejoin:round;stroke-miterlimit:10;stroke-dasharray:none;stroke-opacity:1"
         d="M 59.77559,29.88779 79.70093,59.7757" /><g
         transform="translate(0,59.776)"
         id="g28" /></g></g></svg>
